{"title":"Twilight Saga Breaking Dawn Part 2 2012 TS 720P XVID AC3-ADTRG","uid":7844699,"size":2321820335,"categoryP":"video","categoryS":"hd___movies","magnet":"?xt=urn:btih:a4f98ef7d61efb3d04b6ae2f392151f3cb15dc37&amp;dn=Twilight+Saga+Breaking+Dawn+Part+2+2012+TS+720P+XVID+AC3-ADTRG&amp;tr=udp%3A%2F%2Ftracker.openbittorrent.com%3A80&amp;tr=udp%3A%2F%2Fopen.demonii.com%3A1337&amp;tr=udp%3A%2F%2Ftracker.coppersurfer.tk%3A6969&amp;tr=udp%3A%2F%2Fexodus.desync.com%3A6969","seeders":9,"leechers":0,"uploader":"HeroMaster","files":-1,"time":1353439663,"description":"The Twilight Saga Breaking Dawn Part 2 2012 TS 720P NEW Xvid AC3-ADTRG\n\n\nIMDB: http://www.imdb.com/title/tt1673434/\n\n\nComplete name : The Twilight Saga Breaking Dawn Part 2 2012 TS 720P Xvid Ac3-ADTRG.avi\nEncoder : Sp1\nSource : Leem3rx0 [Thanks]\nFormat : AVI\nFormat/Info : Audio Video Interleave\nFormat profile : OpenDML\nFile size : 2.15 GiB\nDuration : 1h 42mn\nOverall bit rate : 2 999 Kbps\nWriting application : VirtualDubMod 1.5.10.2 (build 2540/release)\nWriting library : VirtualDubMod build 2540/release\n\nVideo\nID : 0\nFormat : MPEG-4 Visual\nFormat profile : Advanced Simple@L5\nFormat settings, BVOP : 2\nFormat settings, QPel : No\nFormat settings, GMC : No warppoints\nFormat settings, Matrix : Default (H.263)\nMuxing mode : Packed bitstream\nCodec ID : XVID\nCodec ID/Hint : XviD\nDuration : 1h 42mn\nBit rate : 2 795 Kbps\nWidth : 1 280 pixels\nHeight : 540 pixels\nDisplay aspect ratio : 2.35:1\nFrame rate : 25.000 fps\nColor space : YUV\nChroma subsampling : 4:2:0\nBit depth : 8 bits\nScan type : Progressive\nCompression mode : Lossy\nBits/(Pixel*Frame) : 0.162\nStream size : 2.00 GiB (93%)\nWriting library : XviD 64\n\nAudio\nID : 1\nFormat : AC-3\nFormat/Info : Audio Coding 3\nMode extension : CM (complete main)\nCodec ID : 2000\nDuration : 1h 42mn\nBit rate mode : Constant\nBit rate : 192 Kbps\nChannel(s) : 2 channels\nChannel positions : Front: L R\nSampling rate : 48.0 KHz\nBit depth : 16 bits\nCompression mode : Lossy\nStream size : 141 MiB (6%)\nAlignment : Split accross interleaves\nInterleave, duration : 40 ms (1.00 video frame)\nInterleave, preload duration : 500 ms\n\n\nNotes :\n\nWas passed a nice vid so applied filters\ncould name them but wont bore you\ncorrected a/r then synced and muxed our\nline very watchable indeed\n\n\nPoster:\n\n &lt;a href=&quot;\nhttp://imgon.net/di-VS4D.jpg&quot; rel=&quot;nofollow&quot; target=&quot;_NEW&quot;&gt;\nhttp://imgon.net/di-VS4D.jpg&lt;/a&gt;\n\n\nScreenshots:\n\n &lt;a href=&quot;\nhttp://imgon.net/di-GN76.jpg&quot; rel=&quot;nofollow&quot; target=&quot;_NEW&quot;&gt;\nhttp://imgon.net/di-GN76.jpg&lt;/a&gt;\n\n &lt;a href=&quot;\nhttp://imgon.net/di-TV48.jpg&quot; rel=&quot;nofollow&quot; target=&quot;_NEW&quot;&gt;\nhttp://imgon.net/di-TV48.jpg&lt;/a&gt;\n\n &lt;a href=&quot;\nhttp://imgon.net/di-67MA.jpg&quot; rel=&quot;nofollow&quot; target=&quot;_NEW&quot;&gt;\nhttp://imgon.net/di-67MA.jpg&lt;/a&gt;\n\n\nENJOY!","torrent":{"xt":"urn:btih:a4f98ef7d61efb3d04b6ae2f392151f3cb15dc37","amp;dn":"Twilight+Saga+Breaking+Dawn+Part+2+2012+TS+720P+XVID+AC3-ADTRG","amp;tr":["udp%3A%2F%2Ftracker.openbittorrent.com%3A80","udp%3A%2F%2Fopen.demonii.com%3A1337","udp%3A%2F%2Ftracker.coppersurfer.tk%3A6969","udp%3A%2F%2Fexodus.desync.com%3A6969"],"infoHash":"a4f98ef7d61efb3d04b6ae2f392151f3cb15dc37","infoHashBuffer":{"type":"Buffer","data":[164,249,142,247,214,30,251,61,4,182,174,47,57,33,81,243,203,21,220,55]},"announce":[],"urlList":[]}}